<?xml version="1.0" encoding="iso-8859-1"?>
<!-- Generator: Adobe Illustrator 19.0.0, SVG Export Plug-In . SVG Version: 6.00 Build 0)  -->
<svg version="1.1" id="Layer_1" xmlns="http://www.w3.org/2000/svg" xmlns:xlink="http://www.w3.org/1999/xlink" x="0px" y="0px"
	 viewBox="0 0 511.982 511.982" style="enable-background:new 0 0 511.982 511.982;" xml:space="preserve">
<circle style="fill:#FFFFFF;" cx="255.991" cy="255.991" r="255.991"/>
<path style="fill:#595A5A;" d="M509.673,290.498C494.206,405.326,402.596,496.02,287.328,510.094l-114.26-114.26
	c2.731-10.226,0.55-207.574-0.77-248.184l55.545-38.612l94.12,103.778l-0.128-23.182l-37.678-43.963l58.202-22.486L509.673,290.498z
	"/>
<path style="fill:#212121;" d="M150.692,328.615c0,19.773,0.898,33.591,2.676,41.471c1.759,7.825,5.058,14.147,9.859,18.894
	s11.838,8.466,21.074,11.215c6.194,1.833,16.017,2.767,29.376,2.767h14.166v-36.633c-10.959,0-24.19-0.696-27.58-2.089
	c-3.335-1.356-5.846-3.335-7.404-5.938c-1.631-2.621-2.401-7-2.456-13.249c-0.843-93.461-1.594-80.633,0.055-176.183
	c0.092-7.605,0.77-12.718,2.089-15.284c1.246-2.492,3.555-4.471,6.872-5.846c3.354-1.374,16.841-2.071,28.423-2.071v-36.633h-14.166
	c-13.781,0-24.336,1.1-31.667,3.244c-7.312,2.126-13.469,5.791-18.472,10.904c-5.003,5.168-8.411,11.472-10.171,18.985
	c-1.778,7.459-2.676,19.297-2.676,35.423C150.692,249.98,150.692,258.813,150.692,328.615z M361.29,328.615
	c0,19.773-0.88,33.591-2.657,41.471c-1.778,7.825-5.058,14.147-9.859,18.894c-4.801,4.746-11.838,8.466-21.074,11.215
	c-6.194,1.833-16.017,2.767-29.376,2.767h-14.166v-36.633c10.94,0,24.19-0.696,27.58-2.089c3.335-1.356,5.846-3.335,7.404-5.938
	c1.631-2.621,2.401-7,2.456-13.249c0.843-93.461,1.594-80.633-0.055-176.183c-0.092-7.605-0.77-12.718-2.089-15.284
	c-1.246-2.492-3.555-4.471-6.872-5.846c-3.354-1.374-16.841-2.071-28.423-2.071v-36.633h14.166c13.781,0,24.336,1.1,31.667,3.244
	c7.312,2.126,13.469,5.791,18.472,10.904c5.003,5.168,8.393,11.472,10.171,18.985c1.778,7.459,2.657,19.297,2.657,35.423
	C361.29,249.98,361.29,258.813,361.29,328.615z"/>
<g>
</g>
<g>
</g>
<g>
</g>
<g>
</g>
<g>
</g>
<g>
</g>
<g>
</g>
<g>
</g>
<g>
</g>
<g>
</g>
<g>
</g>
<g>
</g>
<g>
</g>
<g>
</g>
<g>
</g>
</svg>
