<?xml version="1.0" encoding="utf-8"?>
<!-- Generator: Adobe Illustrator 22.0.1, SVG Export Plug-In . SVG Version: 6.00 Build 0)  -->
<svg version="1.1" id="Layer_1" xmlns="http://www.w3.org/2000/svg" xmlns:xlink="http://www.w3.org/1999/xlink" x="0px" y="0px"
	 width="1200px" height="1200px" viewBox="0 0 1200 1200" style="enable-background:new 0 0 1200 1200;" xml:space="preserve">
<style type="text/css">
	.st0{fill:#00471C;}
</style>
<path d="M1076.1,444.4h-97.7c-18.8-26.2-43.2-50-73-70.9C831.7,321.6,733.7,293,629.6,293s-202.1,28.6-275.9,80.5
	c-29.7,20.9-54.2,44.7-73,70.9h-97.7c-9.4,0-17,7.6-17,17v223.1c0,9.4,7.6,17,17,17h102.5c18.1,23.6,40.9,45.2,68.2,64.4
	c73.7,51.9,171.7,80.5,275.9,80.5s202.1-28.6,275.9-80.5c27.2-19.2,50.1-40.8,68.2-64.4h102.5c9.4,0,17-7.6,17-17V461.4
	C1093.1,452,1085.4,444.4,1076.1,444.4z M629.6,303c145.4,0,272.1,57.3,336.3,141.4H293.3C357.5,360.3,484.1,303,629.6,303z
	 M629.6,836.4c-141.7,0-265.5-54.4-331.2-134.9h662.3C895.1,782,771.2,836.4,629.6,836.4z M1083.1,684.5c0,3.9-3.1,7-7,7H183.1
	c-3.9,0-7-3.1-7-7V461.4c0-3.9,3.1-7,7-7h892.9c3.9,0,7,3.1,7,7V684.5z"/>
<path d="M375.3,479.6c-9.3,51-19.8,106.8-36,156l-1.8,5.7c-2.7,8.4-3.9,15-15.9,15c-0.9,0-1.8,0.3-3.6-0.6h0.3
	c-7.2-3-31.5-95.1-32.4-95.7c-4.5,13.5-26.4,78.6-29.7,89.7c-2.1,3.9-7.5,6.9-11.4,6.9c-2.4,0-4.8-0.3-6.3-1.5
	c-12.3-7.5-28.5-112.5-32.7-140.4c-0.3-0.6-0.6-2.4-0.6-3.3v-0.3c0-4.2-3.9-16.8-3.9-25.8c0-12,7.2-14.1,17.1-14.1
	c3,0,5.1,0.6,6.3,1.2c3,2.4,21.6,93.3,21.6,99.3c2.1,8.1,6.3,42,7.5,42c3.3,0,13.5-39.9,13.8-41.1c3.3-9,13.2-48.6,16.5-54.3h-0.3
	c0.9-3,5.7-3.9,9.3-3.9c3,0,6.3,0.9,7.5,1.5v-0.3c4.8,1.8,19.5,73.2,20.4,77.1c0,0.6,4.2,25.2,7.8,25.2c1.8,0,15.9-61.2,23.7-93.3
	l3.9-16.2c2.4-10.5,6.3-33,10.8-34.8c0.9-0.3,1.8-0.6,3-0.6C375,473,375.3,479.3,375.3,479.6z M477.3,642.5h-5.7
	c-10.8,0-33.3,0.9-44.1,0.9c-4.8,0-5.4-1.5-5.4-10.5v-10.5c0-17.4,1.2-39.6,1.8-44.7v0.3c0.6-3.6,2.1-4.2,4.5-4.2
	c5.7,0,6,0.9,25.8,0.9c9.9,0,19.5-0.9,19.5-4.5v-1.5c-0.3-6-0.6-7.5-5.7-7.5c-4.5,0-18.3,1.2-41.4,1.2c-1.8,0-2.1-21.9-2.1-39.6
	c0-10.5,0.3-12.3,1.8-12.3c5.7,0,23.7,1.5,36.6,1.5c12.9,0,18.3-1.5,18.3-6.9c0-3.9-4.5-4.8-8.7-4.8c-1.5,0-3,0.3-4.2,0.3h-2.4
	c-4.8-0.3-30.3-1.2-48-1.2c-9.9,0-18,0.3-19.2,1.5c-2.1,2.4-2.7,18.9-2.7,33.3c0,6.9,0.3,13.5,0.3,18v17.7
	c-0.3,13.2-0.6,33.3-0.6,50.7v10.2c0,17.4,0.6,24.6,4.2,25.2c4.8,0.3,17.1,0.3,30.9,0.3h18c23.1,0,34.5-0.6,34.5-7.8
	C483.3,646.1,481.8,643.1,477.3,642.5z M571.8,642.5h-0.3c-3,0-30.9,0.9-40.2,0.9c-1.8,0-2.1,0-2.1-1.2c0-17.1,5.1-124.5,5.1-132.9
	c0-7.5-7.5-9.3-15-9.3c-13.8,0-13.5,4.2-13.5,18.6v6.9c0,13.5-2.7,119.1-2.7,127.2c1.8,2.7,12.9,3.6,26.4,3.6h18
	c22.2,0,31.2-0.6,31.2-7.8C578.7,646.1,576.9,643.1,571.8,642.5z M677.1,532.1c0,3.6,2.7,5.4,6.3,5.4c8.7,0,14.4-12.6,14.4-20.7
	c0-13.5-11.4-16.2-24.3-16.2c-3.9,0-7.8,0.3-11.7,1.2c-45.9,10.8-63.3,51-63.3,88.8c0,23.7,2.4,49.2,27,60.9c0.3,0,0.9,0.3,1.2,0.3
	c4.5,3,12.6,4.2,21.6,4.2c7.8,0,16.5-1.2,21.6-4.2v0.3c9.3-5.1,27.9-16.5,27.9-28.5c-0.6-3.6-2.1-4.8-4.5-4.8
	c-3.3,0-7.5,2.7-10.2,6.3v0.3c-7.8,10.5-15.9,18.3-32.7,18.3c-21.9,0-23.4-35.4-23.4-47.7c0-30.3,11.4-86.7,48.9-86.7
	c6.6,0,11.7,2.4,11.7,7.5C687.6,522.5,677.1,525.2,677.1,532.1z M810.9,536.6c1.5,12.6,3,25.5,3,38.4c0,20.7-3.3,40.5-12.3,58.5
	c-8.1,16.2-28.2,22.8-39.9,22.8s-21.9-5.1-30.6-16.2v-0.6c-10.5-17.7-13.2-37.2-13.2-56.4c0-15.3,3.3-26.1,7.5-38.7l0.9-3
	c6.3-19.2,22.8-41.4,49.5-41.4c21.3,0,32.4,16.5,35.1,36.3V536.6z M800.1,572.9c0-13.2-1.2-26.4-2.4-35.7
	c-1.5-9.9-4.2-27.3-19.2-27.3c-27.9,0-32.7,56.1-32.7,72.9c0,13.8,0.9,61.5,26.4,61.5c4.8,0,9-1.8,12.6-6
	C796.5,624.5,800.1,597.2,800.1,572.9z M945.3,499.4c-1.8,0-17.7,1.2-17.7,5.4l-10.8,20.7c-5.4,11.4-21.6,47.1-23.7,47.1
	c-5.1,0-30.6-70.2-32.1-72c-1.8-0.3-5.1-0.9-7.5-0.9c-6.9,0-16.5,1.8-17.1,6.3c-0.6,30.9-0.9,60.6-0.9,91.5c0,4.5-1.2,21.6-1.2,36
	c0,22.8,1.8,23.1,11.4,23.1c13.5,0,14.7-14.4,14.7-36.6v-73.5l4.2,6.3c3.9,3.9,16.5,45.6,25.8,45.6c12.6,0,20.7-37.8,35.1-56.7
	c0.3,3.3,0.3,6,0.3,9c0,34.8-1.5,30-1.5,82.8c0,21.9,0.6,22.8,11.7,22.8c14.1,0,13.8-12,14.1-27.6l0.9-63
	c0.3-17.7,0.6-35.4,1.2-53.4C952.2,502.4,951.9,499.4,945.3,499.4z M1054.5,642.5h-5.7c-10.8,0-33.3,0.9-44.1,0.9
	c-4.8,0-5.4-1.5-5.4-10.5v-10.5c0-17.4,1.2-39.6,1.8-44.7v0.3c0.6-3.6,2.1-4.2,4.5-4.2c5.7,0,6,0.9,25.8,0.9
	c9.9,0,19.5-0.9,19.5-4.5v-1.5c-0.3-6-0.6-7.5-5.7-7.5c-4.5,0-18.3,1.2-41.4,1.2c-1.8,0-2.1-21.9-2.1-39.6c0-10.5,0.3-12.3,1.8-12.3
	c5.7,0,23.7,1.5,36.6,1.5s18.3-1.5,18.3-6.9c0-3.9-4.5-4.8-8.7-4.8c-1.5,0-3,0.3-4.2,0.3h-2.4c-4.8-0.3-30.3-1.2-48-1.2
	c-9.9,0-18,0.3-19.2,1.5c-2.1,2.4-2.7,18.9-2.7,33.3c0,6.9,0.3,13.5,0.3,18v17.7c-0.3,13.2-0.6,33.3-0.6,50.7v10.2
	c0,17.4,0.6,24.6,4.2,25.2c4.8,0.3,17.1,0.3,30.9,0.3h18c23.1,0,34.5-0.6,34.5-7.8C1060.5,646.1,1059,643.1,1054.5,642.5z"/>
<path d="M519.9,790.9c0,2.8-3.4,3-11.4,3h-7.2c-5.5,0-10.7-0.1-12.6-0.2h-0.4c-1.1,0-1.1-4.4-1.1-13.1c0-6.9,0.2-15.1,0.2-20.4
	v-13.3c0-5.9,0.1-12.8,1-13.8v0.1c0.4-0.5,3-0.7,6.5-0.7c6.6,0,16.5,0.5,18.6,0.5h0.9c0.5,0,1-0.1,1.5-0.1c1.5,0,3.1,0.3,3.1,1.7
	c0,2.2-2,2.7-7.1,2.7c-3.5,0-8.1-0.3-11.2-0.3c-2.5,0-2.9-0.2-2.9,2c0,7.8,0,18.2,0.9,18.2c9,0,13.8-0.5,15.7-0.5c1.8,0,2,0.7,2,3.5
	c0,1.5-4,1.8-7.8,1.8c-7.1,0-7.1-0.3-9.2-0.3c-1,0-1.6,0.2-1.8,1.6c-0.3,1.9-0.6,10.3-0.6,17v4.7c0,3.4,0.3,4,2.6,4
	c3.7,0,11.2-0.4,15.5-0.4c1.3,0,2.2,0,2.6,0.1C519.3,788.9,519.9,789.9,519.9,790.9z M555.4,781.4c0,9.3-7,13.4-14.2,13.4
	c-7.5,0-14.6-2.6-14.6-12.9c0-3.7,0.7-7.8,2.3-7.8c1.6,0,2,1.1,2,1.9c0,1.7-0.9,3.5-0.9,5.3c0,5.4,4.2,9.9,10.2,9.9
	c5.4,0,7.6-5.7,7.6-9c0-12-18-19.1-18-30.4c0-5.4,5.7-9.8,13.5-9.8c8,0,11.2,5.1,11.2,9.1c0,2.4-1.3,4.8-3.4,4.8c-1.3,0-2-1.3-2-3.1
	c0-1.6,1.2-3.3,1.2-4c0-1.5-3-3.5-6.9-3.5c-3.1,0-6.2,1.8-6.2,4.8c0,6.6,13,15.4,16.1,22.9C554.6,776.2,555.4,778.7,555.4,781.4z
	 M588.6,742.5c0.4,0,0.9-0.1,1.2-0.1c1.7,0,3.3,0.4,3.3,2c0,1.5-1.1,1.5-4.7,1.5c-6,0-5.4-0.2-7-0.2c-0.8,0-0.9,0.1-0.9,0.8v9.7
	c0,12.3-0.1,32.2-1.3,36.1c-0.5,1.4-2.5,2.1-4,2.1c-1.2,0-2.4-0.2-3-0.5c-0.8-0.4-0.8-4.9-0.8-13.5c0-21.7,0.7-25.8,0.7-33.6
	c0-1-0.8-1.2-3.7-1.2c-0.8,0-1.7,0.1-2.6,0.1h-2.5c-3.5,0-4.5-0.2-4.5-2c0-1.2,0.7-1.3,1.4-1.3h6.7c2.4,0,4.7-0.1,7.1-0.1
	c4.6,0,9.2,0.1,13.7,0.2H588.6z M601.7,787.1c0.6-0.5,1.3-0.6,2.1-0.6c3.8,0,5.3,2.1,5.3,4.4c0,2.8-2.2,3.9-4.1,3.9
	c-2.6,0-5.2-2.1-5.2-4.4C599.8,789.4,600.3,788.2,601.7,787.1L601.7,787.1z M648.8,732.9c2,0,2.6,0.8,2.6,3.2v0.8
	c0,0.3-0.1,0.5-0.1,0.9c-0.7,16-0.7,32.8-1.8,48.5c-0.5,6.7-2.9,8-5.3,8c-3.6,0-3.9-1-3.9-3.7c0-6.4,1.1-22.4,1.1-32.2
	c0-4.8-0.2-7.6-1.2-7.6c-2,0-6.2,5.7-8.2,7.1h0.1c-0.8,0.8-1.6,1-2.3,1c-1.4,0-2.2-1.2-2.2-2.8c0-2.6,6.2-8.5,7.3-9.7
	c0.1-0.2,0.4-0.3,0.5-0.5l1-1.2c1.4-1.7,2.8-3.4,4.9-7.1c1.2-1.2,0.4-3.9,3.1-4.2C646.4,733.1,647.7,732.9,648.8,732.9z
	 M693.2,754.8c0,17.7-7.1,38.8-27.1,38.8c-5.1,0-7.1-2.2-7.1-3.8c0-1,0.7-1.9,2.1-1.9c2.3,0,4,0.3,5.2,0.3c2.7,0,3.7-0.8,7.5-3.2
	l1.1-0.7c5.2-3.2,8.8-14.7,8.8-19V765l-1,1c-2.8,2.8-6.7,4.5-10.7,4.5c-9.4,0-14.1-6.2-14.1-18.9c0-12.1,9.7-18.3,16.6-18.3
	c3.2,0,6.2,0.9,10,2.2C691.1,738,693.2,746.2,693.2,754.8z M683.4,750.8c0-1.7-0.2-3.7-0.6-5.6c-0.9-4.3-6.9-7.5-9-7.5
	c-4.4,0-10.9,5.4-10.9,14.9c0,7.9,3.2,13.5,9,13.5c4,0,8.9-3.2,10.3-7.9C683,755.6,683.4,753.3,683.4,750.8z M733.1,789.3
	c0.9,0.1,1.3,0.9,1.3,1.9c0,1.2-0.6,2.5-1.1,2.7l-1,0.1c-8.5,0-15.1,0.4-25.1,0.4c-3.6,0-7.4-0.7-7.4-3.6c0-0.7,0.2-1.6,0.9-2.7
	h-0.1c4.8-8.9,23.6-31.1,24.1-40.9c0-1.2,0.2-2.4,0.2-3.7c0-3.3-2.3-6.6-6.7-6.6c-6.1,0-8.8,6.3-8.9,9.4c0,0.1,0.2,1.9,0.3,2.6v-0.1
	c0.2,1,0.3,1.9,0.3,2.9c0,1.9-0.9,2.5-1.9,2.5c-3.4,0-3.7-4.6-3.7-7.1c0-7.6,6-14.4,16.7-14.4c10.5,0,13.1,9.5,13.1,14.4
	c0,7.9-6,15.8-11.1,22.6l-3.4,4.5c-5.4,7.1-10.9,14.2-10.9,14.3c0,0.9,1.9,1.1,4.1,1.1c6.4,0,7.1-0.5,12.9-0.5
	C728.6,789.1,731.3,789.2,733.1,789.3L733.1,789.3z M762.2,732.9c2,0,2.6,0.8,2.6,3.2v0.8c0,0.3-0.1,0.5-0.1,0.9
	c-0.7,16-0.7,32.8-1.8,48.5c-0.5,6.7-2.9,8-5.3,8c-3.6,0-3.9-1-3.9-3.7c0-6.4,1.1-22.4,1.1-32.2c0-4.8-0.2-7.6-1.2-7.6
	c-2,0-6.2,5.7-8.2,7.1h0.1c-0.8,0.8-1.6,1-2.3,1c-1.4,0-2.2-1.2-2.2-2.8c0-2.6,6.2-8.5,7.3-9.7c0.1-0.2,0.4-0.3,0.5-0.5l1-1.2
	c1.4-1.7,2.8-3.4,4.9-7.1c1.2-1.2,0.4-3.9,3.1-4.2C759.8,733.1,761.1,732.9,762.2,732.9z"/>
<path class="st0" d="M858.3,417c-1.6,1-3.1,0.6-4.6-0.1c-4.1-2.7-7.9-5.5-12-7.9c-17.4-9.9-36.9-15.9-56.6-21.3
	c-3.3-1.1-7.1-1-10.6-0.7c-9,1.2-17.6,2.3-25.7,5.6c-2,0.8-3.3,1.7-4.2,3.2c-7.6,12.1-20.1,19.5-34.1,26.3c-1.3,0.7-2.7,1.1-4.4,1.6
	c-7.5,1.9-13.9-2.9-12.8-8.9c0.1-2.3,1.6-4.7,2.8-6.8c2.1-3,5-5.6,8.7-7.7c13.9-8.4,29.5-12.8,46.5-13.9c0.7-0.1,1.8,0.1,2.8,0
	c3.1-0.3,6.6-0.6,9.7-1.2c0.7-0.1,1.3-1,2-1.3c-0.4-0.2-0.8-0.8-1.5-1c-15.7-3.3-32-5.9-48.3-7.7c-2.1-0.4-4.5,0.2-6.6,0.9
	c-7.5,2.4-14.1,5.9-20.7,9.4c-2.3,1.4-4.2,3.2-5.8,5.4c-3,4.8-6.4,9.4-9.4,14.2c-4.2,6.6-10.4,11.8-17.2,16.7
	c-2.6,1.7-5.3,2.8-8.8,3.1c-5.5,0.5-10.3-1.8-11.8-6.2c-1.5-4.7-0.2-9,4-12.6c2.3-1.9,4.9-3.9,7.5-5.3c4.7-2.4,9.3-4.9,14.3-7.1
	c8-3.6,16.4-7,24.5-10.6c5-2.2,9.7-4.6,14.3-7.1c0.3,0,1-0.7,0.9-1.2c-0.1-0.6-0.8-1.1-1.1-1c-1.8-0.4-3.2-0.5-5-0.6
	c-14.4-0.3-28.7-0.3-42.8-1.2c-7.7-0.4-14.2,1.7-19.7,5.9c-1.9,1.6-4.6,3.3-6.5,4.9c-3.2,2.6-5.7,5.7-7.1,9.5
	c-1.7,4.4-4,8.6-6.4,12.8c-4.8,8.1-12.2,14.2-21.2,19.1c-2,1-4.4,1.6-6.4,2c-3.8,0.7-6.4-0.8-7-3.8c-1.1-4.4,0.5-8.8,3.6-12.8
	c5-5.9,10.4-11.2,17.3-15.6c6.9-4.6,14.5-8.5,22.6-11.6c4.7-1.6,7.9-4.7,11.1-7.9c0-0.3-0.5-1.1-0.8-1.1c-1.8-0.4-3.2-0.5-4.9-0.4
	c-10.4,0.5-20.9,1.2-31.3,1.7c-3.5,0.3-6.5,1.5-9.1,3.2c-4.3,2.7-8.6,5.4-12.9,7.8c-6.3,3.5-10.8,7.9-13,13.7
	c-2.9,6.5-6.8,12.3-11.9,17.9c-3.2,3.4-6.4,6.3-11.1,8.2c-6.4,2.6-12.2,0.4-12.8-5.3c-0.3-3.1,0.8-6.3,3-9.1
	c2.8-3.1,5.7-6.2,8.9-8.8c5.5-4.2,11.8-8,18.9-10.4c8.1-2.8,14.3-7.6,20.8-12.2c0.3,0,0.3-0.9,0.2-1.2c0-0.3-0.4-0.5-0.7-0.5
	c-4.2,0.1-8.4,0.3-12.5,0.9c-9,1.2-18.3,2.4-25.8,7.4c-0.7,0.3-1.4,0.4-2,0.5c0.3-0.6,0.9-1.5,2.5-3.1c-0.5-1.4-2.2-0.6-3.2-0.5
	c-16.9,2.8-33.3,6.1-49.7,10.3c-2.7,0.6-5.8,1.7-8.1,3.1c-12,6.3-23.6,12.8-35.5,19.4c-5.3,3.1-11.1,4.8-16.8,6.8
	c-3.4,1.2-6.8,1.5-10.4,0.5c-4.7-1.2-6-4.2-3.9-7.5c2.4-3.6,5.6-6.8,10-8.9c14.3-7.4,28.8-13,45.8-13.9c4.5-0.2,9.4-0.6,13.4-2.2
	c9.8-3.5,19.7-6.2,30-8c1.4-0.1,2.4-0.5,3.8-0.9c0.3-0.3,1.3-0.7,1.3-1c-0.1-0.6-0.8-1.1-1.2-1.3c-4.3-1.6-8.7-2.8-13.9-2.3
	c-5.9,0.6-11.5,0.3-17.4,0.3c-6.6,0.1-12.7-1-18.8-3c-3.3-1.1-6.2-2.5-8.5-4.8c-3.5-3.9-1.3-9.2,3.5-10.5c3.4-0.9,6.4-2,10.3-1.9
	c3.2,0.3,6.3,0.2,9.5,0.8c9.6,1.3,17.3,5.4,23.5,11.3c1.6,1.5,3.1,3.1,5.6,4c4.7,1.5,9.4,3,14.1,4.8c3.3,1.1,6.1,1.1,9.5,0.2
	c4.4-1,8.9-1.7,13.4-2.7c4.1-1,8.2-1.7,12.3-2.6c0.7-0.1,1.3-1,2-1.3c-0.7-0.2-1.1-0.5-1.8-0.4c-15.7-0.2-29.8-4.2-43-10.5
	c-2.2-0.9-4.4-2.1-6.3-3.6s-3.8-3.3-5.1-5.4c-3-5.4,0.6-11.4,8.2-13c7.2-1.3,13.6-0.5,19.8,2.3c11,4.9,19.7,11.7,24.8,21.1
	c2.6,4.8,6.3,6.7,12,7.9c4.6,0.7,9.2,1.1,13.7,0.4c13.8-1.9,28-3,41.9-3.8c1.7-0.2,3.1-0.6,4.8-1c-0.2-2-2.6-1.4-4.1-2.1
	c-2.9-1.1-5.5-2.9-8.4-3.4c-3.2-0.8-7-0.4-10.6-0.9c-1.8-0.1-3.9-0.5-5.7-0.9c-17-2.6-28.4-11.1-38.5-21.7c0-0.3-0.4-0.5-0.4-0.8
	c-1.6-2.4-0.2-5.6,2.9-6.5c4.7-1.6,9.6-2.4,14.5-1.7c12.7,1.6,23.3,5.6,30.8,14.2c2.4,3.2,4.8,6,7.2,9.2c1.2,1.6,2.1,3.2,3.3,4.8
	c1.7,2.7,4.7,4.6,8.3,6c8,2.9,16.2,4.6,25.2,4.3c9.4-0.4,18.9,0.1,28.3,0c0.3,0,1-0.7,1.3-1c0-0.3-0.5-1.1-0.8-1.3
	c-0.8-0.8-2.2-1.2-3.3-1.4c-3.5-0.2-6.8-1.6-9.4-3.3c-3.4-2.2-7.1-4.4-10.1-6.9c-5.3-4.3-10.3-9.2-15-14.1c-1.9-1.8-3.2-3.9-4.4-6.1
	c-2.5-4.6,0.5-9.4,6.2-11.1c4.8-1.3,8.7-0.9,12.7,1.6c9.7,6.1,15.4,14.6,17.8,24.3c3.1,13.3,0.6,9.3,14.3,17.8
	c0.4,0.2,0.8,0.8,1.5,1c1.4,0.4,2.9,1.1,4.3,1.3c18.7,1.3,36.7,3.2,54.8,6.2c0.3,0,0.7-0.1,1-0.1c0.3,0,1-0.1,1-0.4
	c0-0.3,0.6-0.9,0.2-1.2c-4.3-5-10-9.2-15.3-13.8c-5.7-5.1-11.5-9.9-16.9-15c-2.3-2-4.3-4.4-4.9-7.4c-0.8-4.7,2-7.8,7.9-8.4
	c4.2-0.4,7.5,1.2,10.8,2.9c5.2,2.9,8.4,7.1,10.3,12c2.3,5.4,4.9,10.8,4.8,16.8c0,3.7,2,6.3,4.7,9.2c5.8,5.7,12.4,9.3,21.3,10.9
	c14.2,2.6,27.9,6.6,41.3,11.2c11.2,4,22.8,8.2,32.9,14.3c2.6,1.4,5.6,3.4,7.9,5.5c1.1,1,2,2.6,2.5,4
	C860.5,414.8,859.6,416,858.3,417z"/>
</svg>
